<svg xmlns="http://www.w3.org/2000/svg" version="1.1" xmlns:xlink="http://www.w3.org/1999/xlink" xmlns:svgjs="http://svgjs.dev/svgjs" width="1440" height="560" preserveAspectRatio="none" viewBox="0 0 1440 560"><g mask="url(&quot;#SvgjsMask1006&quot;)" fill="none"><rect width="1440" height="560" x="0" y="0" fill="rgba(230, 214, 199, 1)"></rect><path d="M0 52.82L10 64.36L20 67.63L30 93.77L40 80.93L50 137.32L60 171.44L70 143.83L80 78.57L90 42.02L100 26.82L110 77.52L120 82.44L130 126.77L140 127.91L150 159.93L160 100.15L170 113.45L180 165.63L190 226.89L200 219.73L210 226.78L220 175.45L230 180.92L240 250.41L250 229.42L260 254.08L270 281.37L280 297.6L290 345.59L300 385.78L310 371.75L320 325.22L330 296.74L340 326.86L350 385.12L360 410.26L370 384.23L380 387.67L390 442.66L400 414.9L410 402.87L420 411.1L430 364.02L440 367.57L450 387.69L460 364.35L470 382.84L480 362.35L490 356.18L500 314.58L510 328.29L520 324.83L530 284.78L540 257.35L550 274.79L560 333.79L570 330.98L580 314.47L590 375.4L600 359.33L610 311.42L620 282.12L630 239.38L640 234.45L650 188.89L660 125.56L670 108.62L680 141.05L690 150L700 149.91L710 108.59L720 54.6L730 83.82L740 70.38L750 105.77L760 85.88L770 95.49L780 141.54L790 191.66L800 145.11L810 103.12L820 146.19L830 141.24L840 147.76L850 201.63L860 243.11L870 205.77L880 226.99L890 205.18L900 271.09L910 205.59L920 158.12L930 132.69L940 99.46L950 155.43L960 191.82L970 161.7L980 111.66L990 107.06L1000 143.51L1010 151.49L1020 99.43L1030 103.95L1040 95.93L1050 78.99L1060 64.39L1070 24.64L1080 4.03L1090 28.38L1100 38.85L1110 38.93L1120 53.14L1130 16.03L1140 31.61L1150 44.66L1160 0.1L1170 51.57L1180 47.73L1190 40.47L1200 18.85L1210 0.63L1220 6.06L1230 40.88L1240 77.59L1250 44.07L1260 16.18L1270 48.27L1280 20.32L1290 80L1300 138.3L1310 72.2L1320 93.08L1330 154.78L1340 103.54L1350 44.84L1360 37.11L1370 45.89L1380 92.78L1390 50.17L1400 60.83L1410 125.7L1420 79.91L1430 64.06L1440 8.01" stroke="rgba(152, 176, 226, 1)" stroke-width="2"></path><path d="M0 52.82L10 64.36L20 67.63L30 93.77L40 80.93L50 137.32L60 171.44L70 143.83L80 78.57L90 42.02L100 26.82L110 77.52L120 82.44L130 126.77L140 127.91L150 159.93L160 100.15L170 113.45L180 165.63L190 226.89L200 219.73L210 226.78L220 175.45L230 180.92L240 250.41L250 229.42L260 254.08L270 281.37L280 297.6L290 345.59L300 385.78L310 371.75L320 325.22L330 296.74L340 326.86L350 385.12L360 410.26L370 384.23L380 387.67L390 442.66L400 414.9L410 402.87L420 411.1L430 364.02L440 367.57L450 387.69L460 364.35L470 382.84L480 362.35L490 356.18L500 314.58L510 328.29L520 324.83L530 284.78L540 257.35L550 274.79L560 333.79L570 330.98L580 314.47L590 375.4L600 359.33L610 311.42L620 282.12L630 239.38L640 234.45L650 188.89L660 125.56L670 108.62L680 141.05L690 150L700 149.91L710 108.59L720 54.6L730 83.82L740 70.38L750 105.77L760 85.88L770 95.49L780 141.54L790 191.66L800 145.11L810 103.12L820 146.19L830 141.24L840 147.76L850 201.63L860 243.11L870 205.77L880 226.99L890 205.18L900 271.09L910 205.59L920 158.12L930 132.69L940 99.46L950 155.43L960 191.82L970 161.7L980 111.66L990 107.06L1000 143.51L1010 151.49L1020 99.43L1030 103.95L1040 95.93L1050 78.99L1060 64.39L1070 24.64L1080 4.03L1090 28.38L1100 38.85L1110 38.93L1120 53.14L1130 16.03L1140 31.61L1150 44.66L1160 0.1L1170 51.57L1180 47.73L1190 40.47L1200 18.85L1210 0.63L1220 6.06L1230 40.88L1240 77.59L1250 44.07L1260 16.18L1270 48.27L1280 20.32L1290 80L1300 138.3L1310 72.2L1320 93.08L1330 154.78L1340 103.54L1350 44.84L1360 37.11L1370 45.89L1380 92.78L1390 50.17L1400 60.83L1410 125.7L1420 79.91L1430 64.06L1440 8.01L1440 560L0 560z" fill="url(&quot;#SvgjsLinearGradient1007&quot;)"></path></g><defs><mask id="SvgjsMask1006"><rect width="1440" height="560" fill="#ffffff"></rect></mask><linearGradient x1="50%" y1="0%" x2="50%" y2="100%" id="SvgjsLinearGradient1007"><stop stop-opacity="0.65" stop-color="rgba(152, 176, 226, 1)" offset="0"></stop><stop stop-opacity="0" stop-color="#ffffff" offset="0.8"></stop></linearGradient></defs></svg>