<svg xmlns="http://www.w3.org/2000/svg" version="1.1" xmlns:xlink="http://www.w3.org/1999/xlink" xmlns:svgjs="http://svgjs.dev/svgjs" width="2000" height="1080" preserveAspectRatio="none" viewBox="0 0 2000 1080"><g mask="url(&quot;#SvgjsMask1273&quot;)" fill="none"><rect width="2000" height="1080" x="0" y="0" fill="url(&quot;#SvgjsLinearGradient1274&quot;)"></rect><path d="M -10.337605556070116,550 C 123.06,541.6 389.86,478.6 656.6623944439299,508 C 923.46,537.4 1056.86,709.4 1323.6623944439298,697 C 1590.46,684.6 1723.86,406.6 1990.6623944439298,446 C 2257.46,485.4 2655.79,935.4 2657.6623944439298,894 C 2659.53,852.6 2131.53,370 2000,239" stroke="rgba(51, 121, 194, 0.58)" stroke-width="2"></path><path d="M -1140.14130318603,675 C -1006.74,615 -739.94,319.6 -473.14130318603003,375 C -206.34,430.4 -72.94,966.2 193.85869681396997,952 C 460.66,937.8 594.06,328.6 860.85869681397,304 C 1127.66,279.4 1300.03,862.2 1527.85869681397,829 C 1755.69,795.8 1905.57,276.2 2000,138" stroke="rgba(51, 121, 194, 0.58)" stroke-width="2"></path><path d="M -313.8758288571114,581 C -180.48,553.4 86.32,415.2 353.1241711428886,443 C 619.92,470.8 753.32,738.2 1020.1241711428886,720 C 1286.92,701.8 1420.32,346.6 1687.1241711428886,352 C 1953.92,357.4 2291.55,786.6 2354.1241711428884,747 C 2416.7,707.4 2070.82,272.6 2000,154" stroke="rgba(51, 121, 194, 0.58)" stroke-width="2"></path><path d="M -317.3231235504224,785 C -183.92,690.6 82.88,311.8 349.6768764495776,313 C 616.48,314.2 749.88,781.4 1016.6768764495775,791 C 1283.48,800.6 1416.88,399.6 1683.6768764495775,361 C 1950.48,322.4 2287.41,568 2350.676876449578,598 C 2413.94,628 2070.14,528.4 2000,511" stroke="rgba(51, 121, 194, 0.58)" stroke-width="2"></path></g><defs><mask id="SvgjsMask1273"><rect width="2000" height="1080" fill="#ffffff"></rect></mask><linearGradient x1="11.5%" y1="-21.3%" x2="88.5%" y2="121.3%" gradientUnits="userSpaceOnUse" id="SvgjsLinearGradient1274"><stop stop-color="#0e2a47" offset="0"></stop><stop stop-color="rgba(89, 233, 233, 1)" offset="1"></stop></linearGradient></defs></svg>