<svg xmlns="http://www.w3.org/2000/svg" version="1.1" xmlns:xlink="http://www.w3.org/1999/xlink" xmlns:svgjs="http://svgjs.dev/svgjs" width="3000" height="1080" preserveAspectRatio="none" viewBox="0 0 3000 1080"><g mask="url(&quot;#SvgjsMask1299&quot;)" fill="none"><rect width="3000" height="1080" x="0" y="0" fill="url(&quot;#SvgjsLinearGradient1300&quot;)"></rect><path d="M -1555.9294297225413,829 C -1355.93,751.4 -955.93,442.8 -555.9294297225413,441 C -155.93,439.2 44.07,847.6 444.0705702774587,820 C 844.07,792.4 1044.07,320.4 1444.0705702774587,303 C 1844.07,285.6 2132.88,738.6 2444.0705702774585,733 C 2755.26,727.4 2888.81,366.6 3000,275" stroke="rgba(51, 121, 194, 0.58)" stroke-width="2"></path><path d="M -998.2098861573759,799 C -798.21,682.2 -398.21,228.8 1.7901138426241747,215 C 401.79,201.2 601.79,666.4 1001.7901138426241,730 C 1401.79,793.6 1601.79,554.8 2001.7901138426241,533 C 2401.79,511.2 2802.15,704 3001.790113842624,621 C 3201.43,538 3000.36,218.6 3000,118" stroke="rgba(51, 121, 194, 0.58)" stroke-width="2"></path><path d="M -461.4921525924866,868 C -261.49,774.6 138.51,400 538.5078474075134,401 C 938.51,402 1138.51,879.4 1538.5078474075135,873 C 1938.51,866.6 2138.51,367.8 2538.5078474075135,369 C 2938.51,370.2 3446.21,847.4 3538.5078474075135,879 C 3630.81,910.6 3107.7,597.4 3000,527" stroke="rgba(51, 121, 194, 0.58)" stroke-width="2"></path><path d="M -285.1922050913363,337 C -85.19,427.8 314.81,823.8 714.8077949086637,791 C 1114.81,758.2 1314.81,187.6 1714.8077949086637,173 C 2114.81,158.4 2314.81,706.6 2714.8077949086637,718 C 3114.81,729.4 3657.77,248.8 3714.8077949086637,230 C 3771.85,211.2 3142.96,545.2 3000,624" stroke="rgba(51, 121, 194, 0.58)" stroke-width="2"></path></g><defs><mask id="SvgjsMask1299"><rect width="3000" height="1080" fill="#ffffff"></rect></mask><linearGradient x1="16%" y1="-44.44%" x2="84%" y2="144.44%" gradientUnits="userSpaceOnUse" id="SvgjsLinearGradient1300"><stop stop-color="#0e2a47" offset="0"></stop><stop stop-color="rgba(89, 233, 233, 1)" offset="1"></stop></linearGradient></defs></svg>