<svg xmlns="http://www.w3.org/2000/svg" version="1.1" xmlns:xlink="http://www.w3.org/1999/xlink" xmlns:svgjs="http://svgjs.dev/svgjs" width="3000" height="2000" preserveAspectRatio="none" viewBox="0 0 3000 2000"><g mask="url(&quot;#SvgjsMask1309&quot;)" fill="none"><rect width="3000" height="2000" x="0" y="0" fill="url(&quot;#SvgjsLinearGradient1310&quot;)"></rect><path d="M -1778.1554365872144,690 C -1578.16,771.8 -1178.16,1094.2 -778.1554365872144,1099 C -378.16,1103.8 -178.16,651.8 221.84456341278565,714 C 621.84,776.2 821.84,1487.4 1221.8445634127856,1410 C 1621.84,1332.6 1866.21,303.2 2221.8445634127856,327 C 2577.48,350.8 2844.37,1288.6 3000,1529" stroke="rgba(51, 121, 194, 0.58)" stroke-width="2"></path><path d="M -1799.8096627926368,1583 C -1599.81,1337.2 -1199.81,313 -799.8096627926368,354 C -399.81,395 -199.81,1790.4 200.1903372073632,1788 C 600.19,1785.6 800.19,373.2 1200.1903372073632,342 C 1600.19,310.8 1840.23,1644 2200.190337207363,1632 C 2560.15,1620 2840.04,552 3000,282" stroke="rgba(51, 121, 194, 0.58)" stroke-width="2"></path><path d="M -281.2835123299566,1077 C -81.28,1043.2 318.72,819 718.7164876700434,908 C 1118.72,997 1318.72,1567.8 1718.7164876700435,1522 C 2118.72,1476.2 2318.72,629.6 2718.7164876700435,679 C 3118.72,728.4 3662.46,1819 3718.7164876700435,1769 C 3774.97,1719 3143.74,697 3000,429" stroke="rgba(51, 121, 194, 0.58)" stroke-width="2"></path><path d="M -1063.107654509696,1738 C -863.11,1441.4 -463.11,288.8 -63.10765450969602,255 C 336.89,221.2 536.89,1488 936.892345490304,1569 C 1336.89,1650 1536.89,684.2 1936.892345490304,660 C 2336.89,635.8 2724.27,1518 2936.892345490304,1448 C 3149.51,1378 2987.38,537.6 3000,310" stroke="rgba(51, 121, 194, 0.58)" stroke-width="2"></path></g><defs><mask id="SvgjsMask1309"><rect width="3000" height="2000" fill="#ffffff"></rect></mask><linearGradient x1="8.33%" y1="-12.5%" x2="91.67%" y2="112.5%" gradientUnits="userSpaceOnUse" id="SvgjsLinearGradient1310"><stop stop-color="#0e2a47" offset="0"></stop><stop stop-color="rgba(89, 233, 233, 1)" offset="1"></stop></linearGradient></defs></svg>