<svg xmlns="http://www.w3.org/2000/svg" version="1.1" xmlns:xlink="http://www.w3.org/1999/xlink" xmlns:svgjs="http://svgjs.dev/svgjs" width="1080" height="4000" preserveAspectRatio="none" viewBox="0 0 1080 4000"><g mask="url(&quot;#SvgjsMask1066&quot;)" fill="none"><rect width="1080" height="4000" x="0" y="0" fill="rgba(228, 231, 232, 1)"></rect><path d="M35 4000L4035 0L4279.5 0L279.5 4000z" fill="url(&quot;#SvgjsLinearGradient1067&quot;)"></path><path d="M199.20000000000002 4000L4199.2 0L4313.2 0L313.20000000000005 4000z" fill="url(&quot;#SvgjsLinearGradient1067&quot;)"></path><path d="M358.40000000000003 4000L4358.4 0L4529.4 0L529.4000000000001 4000z" fill="url(&quot;#SvgjsLinearGradient1067&quot;)"></path><path d="M569.6 4000L4569.6 0L4806.6 0L806.6 4000z" fill="url(&quot;#SvgjsLinearGradient1067&quot;)"></path><path d="M1067 4000L-2933 0L-3018.5 0L981.5 4000z" fill="url(&quot;#SvgjsLinearGradient1068&quot;)"></path><path d="M875.8 4000L-3124.2 0L-3355.2 0L644.8 4000z" fill="url(&quot;#SvgjsLinearGradient1068&quot;)"></path><path d="M700.5999999999999 4000L-3299.4 0L-3411.9 0L588.0999999999999 4000z" fill="url(&quot;#SvgjsLinearGradient1068&quot;)"></path><path d="M519.4 4000L-3480.6 0L-3686.1 0L313.9 4000z" fill="url(&quot;#SvgjsLinearGradient1068&quot;)"></path><path d="M461.2971524771733 4000L1080 3381.2971524771733L1080 4000z" fill="url(&quot;#SvgjsLinearGradient1067&quot;)"></path><path d="M0 4000L618.7028475228267 4000L 0 3381.2971524771733z" fill="url(&quot;#SvgjsLinearGradient1068&quot;)"></path></g><defs><mask id="SvgjsMask1066"><rect width="1080" height="4000" fill="#ffffff"></rect></mask><linearGradient x1="0%" y1="100%" x2="100%" y2="0%" id="SvgjsLinearGradient1067"><stop stop-color="rgba(15, 70, 185, 0.2)" offset="0"></stop><stop stop-opacity="0" stop-color="rgba(15, 70, 185, 0.2)" offset="0.66"></stop></linearGradient><linearGradient x1="100%" y1="100%" x2="0%" y2="0%" id="SvgjsLinearGradient1068"><stop stop-color="rgba(15, 70, 185, 0.2)" offset="0"></stop><stop stop-opacity="0" stop-color="rgba(15, 70, 185, 0.2)" offset="0.66"></stop></linearGradient></defs></svg>