<svg xmlns="http://www.w3.org/2000/svg" version="1.1" xmlns:xlink="http://www.w3.org/1999/xlink" xmlns:svgjs="http://svgjs.dev/svgjs" width="1980" height="1080" preserveAspectRatio="none" viewBox="0 0 1980 1080"><g mask="url(&quot;#SvgjsMask1015&quot;)" fill="none"><rect width="1980" height="1080" x="0" y="0" fill="rgba(228, 231, 232, 1)"></rect><path d="M80 1080L1160 0L1716.5 0L636.5 1080z" fill="url(&quot;#SvgjsLinearGradient1016&quot;)"></path><path d="M679.4 1080L1759.4 0L2456.9 0L1376.9 1080z" fill="url(&quot;#SvgjsLinearGradient1016&quot;)"></path><path d="M1946 1080L866 0L765.5 0L1845.5 1080z" fill="url(&quot;#SvgjsLinearGradient1017&quot;)"></path><path d="M1252.6 1080L172.5999999999999 0L-139.4000000000001 0L940.5999999999999 1080z" fill="url(&quot;#SvgjsLinearGradient1017&quot;)"></path><path d="M1020.8488534719104 1080L1980 120.84885347191039L1980 1080z" fill="url(&quot;#SvgjsLinearGradient1016&quot;)"></path><path d="M0 1080L959.1511465280896 1080L 0 120.84885347191039z" fill="url(&quot;#SvgjsLinearGradient1017&quot;)"></path></g><defs><mask id="SvgjsMask1015"><rect width="1980" height="1080" fill="#ffffff"></rect></mask><linearGradient x1="0%" y1="100%" x2="100%" y2="0%" id="SvgjsLinearGradient1016"><stop stop-color="rgba(15, 70, 185, 0.2)" offset="0"></stop><stop stop-opacity="0" stop-color="rgba(15, 70, 185, 0.2)" offset="0.66"></stop></linearGradient><linearGradient x1="100%" y1="100%" x2="0%" y2="0%" id="SvgjsLinearGradient1017"><stop stop-color="rgba(15, 70, 185, 0.2)" offset="0"></stop><stop stop-opacity="0" stop-color="rgba(15, 70, 185, 0.2)" offset="0.66"></stop></linearGradient></defs></svg>