<svg id="visual" viewBox="0 0 900 600" width="900" height="600" xmlns="http://www.w3.org/2000/svg" xmlns:xlink="http://www.w3.org/1999/xlink" version="1.1"><path d="M0 245L21.5 240C43 235 86 225 128.8 215.3C171.7 205.7 214.3 196.3 257.2 191.7C300 187 343 187 385.8 192.8C428.7 198.7 471.3 210.3 514.2 208.2C557 206 600 190 642.8 186C685.7 182 728.3 190 771.2 193C814 196 857 194 878.5 193L900 192L900 0L878.5 0C857 0 814 0 771.2 0C728.3 0 685.7 0 642.8 0C600 0 557 0 514.2 0C471.3 0 428.7 0 385.8 0C343 0 300 0 257.2 0C214.3 0 171.7 0 128.8 0C86 0 43 0 21.5 0L0 0Z" fill="#2a2322"></path><path d="M0 134L21.5 143.7C43 153.3 86 172.7 128.8 176C171.7 179.3 214.3 166.7 257.2 161.7C300 156.7 343 159.3 385.8 164.8C428.7 170.3 471.3 178.7 514.2 177.2C557 175.7 600 164.3 642.8 159.3C685.7 154.3 728.3 155.7 771.2 162.5C814 169.3 857 181.7 878.5 187.8L900 194L900 0L878.5 0C857 0 814 0 771.2 0C728.3 0 685.7 0 642.8 0C600 0 557 0 514.2 0C471.3 0 428.7 0 385.8 0C343 0 300 0 257.2 0C214.3 0 171.7 0 128.8 0C86 0 43 0 21.5 0L0 0Z" fill="#5f2923"></path><path d="M0 95L21.5 105.5C43 116 86 137 128.8 140.2C171.7 143.3 214.3 128.7 257.2 118C300 107.3 343 100.7 385.8 104.8C428.7 109 471.3 124 514.2 135.2C557 146.3 600 153.7 642.8 156.7C685.7 159.7 728.3 158.3 771.2 155.2C814 152 857 147 878.5 144.5L900 142L900 0L878.5 0C857 0 814 0 771.2 0C728.3 0 685.7 0 642.8 0C600 0 557 0 514.2 0C471.3 0 428.7 0 385.8 0C343 0 300 0 257.2 0C214.3 0 171.7 0 128.8 0C86 0 43 0 21.5 0L0 0Z" fill="#942920"></path><path d="M0 96L21.5 99.3C43 102.7 86 109.3 128.8 105.7C171.7 102 214.3 88 257.2 86.7C300 85.3 343 96.7 385.8 96.5C428.7 96.3 471.3 84.7 514.2 76.8C557 69 600 65 642.8 69.5C685.7 74 728.3 87 771.2 86.3C814 85.7 857 71.3 878.5 64.2L900 57L900 0L878.5 0C857 0 814 0 771.2 0C728.3 0 685.7 0 642.8 0C600 0 557 0 514.2 0C471.3 0 428.7 0 385.8 0C343 0 300 0 257.2 0C214.3 0 171.7 0 128.8 0C86 0 43 0 21.5 0L0 0Z" fill="#c92018"></path><path d="M0 36L21.5 38.3C43 40.7 86 45.3 128.8 47.5C171.7 49.7 214.3 49.3 257.2 51C300 52.7 343 56.3 385.8 56.5C428.7 56.7 471.3 53.3 514.2 49.3C557 45.3 600 40.7 642.8 41.2C685.7 41.7 728.3 47.3 771.2 52.2C814 57 857 61 878.5 63L900 65L900 0L878.5 0C857 0 814 0 771.2 0C728.3 0 685.7 0 642.8 0C600 0 557 0 514.2 0C471.3 0 428.7 0 385.8 0C343 0 300 0 257.2 0C214.3 0 171.7 0 128.8 0C86 0 43 0 21.5 0L0 0Z" fill="#ff0000"></path></svg>