<svg id="visual" viewBox="0 0 900 600" width="900" height="600" xmlns="http://www.w3.org/2000/svg" xmlns:xlink="http://www.w3.org/1999/xlink" version="1.1"><path d="M0 184L21.5 183.5C43 183 86 182 128.8 176.7C171.7 171.3 214.3 161.7 257.2 164.8C300 168 343 184 385.8 192C428.7 200 471.3 200 514.2 206.8C557 213.7 600 227.3 642.8 222.5C685.7 217.7 728.3 194.3 771.2 186C814 177.7 857 184.3 878.5 187.7L900 191L900 0L878.5 0C857 0 814 0 771.2 0C728.3 0 685.7 0 642.8 0C600 0 557 0 514.2 0C471.3 0 428.7 0 385.8 0C343 0 300 0 257.2 0C214.3 0 171.7 0 128.8 0C86 0 43 0 21.5 0L0 0Z" fill="#fa7268"></path><path d="M0 150L21.5 149C43 148 86 146 128.8 142.5C171.7 139 214.3 134 257.2 143.2C300 152.3 343 175.7 385.8 186.5C428.7 197.3 471.3 195.7 514.2 184.5C557 173.3 600 152.7 642.8 142.8C685.7 133 728.3 134 771.2 140.3C814 146.7 857 158.3 878.5 164.2L900 170L900 0L878.5 0C857 0 814 0 771.2 0C728.3 0 685.7 0 642.8 0C600 0 557 0 514.2 0C471.3 0 428.7 0 385.8 0C343 0 300 0 257.2 0C214.3 0 171.7 0 128.8 0C86 0 43 0 21.5 0L0 0Z" fill="#ef5f67"></path><path d="M0 140L21.5 134.5C43 129 86 118 128.8 117.8C171.7 117.7 214.3 128.3 257.2 128C300 127.7 343 116.3 385.8 110.3C428.7 104.3 471.3 103.7 514.2 108.8C557 114 600 125 642.8 125.5C685.7 126 728.3 116 771.2 120.2C814 124.3 857 142.7 878.5 151.8L900 161L900 0L878.5 0C857 0 814 0 771.2 0C728.3 0 685.7 0 642.8 0C600 0 557 0 514.2 0C471.3 0 428.7 0 385.8 0C343 0 300 0 257.2 0C214.3 0 171.7 0 128.8 0C86 0 43 0 21.5 0L0 0Z" fill="#e34c67"></path><path d="M0 83L21.5 79.7C43 76.3 86 69.7 128.8 72.5C171.7 75.3 214.3 87.7 257.2 92.7C300 97.7 343 95.3 385.8 96C428.7 96.7 471.3 100.3 514.2 94.3C557 88.3 600 72.7 642.8 65.8C685.7 59 728.3 61 771.2 69.7C814 78.3 857 93.7 878.5 101.3L900 109L900 0L878.5 0C857 0 814 0 771.2 0C728.3 0 685.7 0 642.8 0C600 0 557 0 514.2 0C471.3 0 428.7 0 385.8 0C343 0 300 0 257.2 0C214.3 0 171.7 0 128.8 0C86 0 43 0 21.5 0L0 0Z" fill="#d53867"></path><path d="M0 72L21.5 70.2C43 68.3 86 64.7 128.8 62.2C171.7 59.7 214.3 58.3 257.2 53.8C300 49.3 343 41.7 385.8 41.5C428.7 41.3 471.3 48.7 514.2 50.3C557 52 600 48 642.8 46.2C685.7 44.3 728.3 44.7 771.2 42.8C814 41 857 37 878.5 35L900 33L900 0L878.5 0C857 0 814 0 771.2 0C728.3 0 685.7 0 642.8 0C600 0 557 0 514.2 0C471.3 0 428.7 0 385.8 0C343 0 300 0 257.2 0C214.3 0 171.7 0 128.8 0C86 0 43 0 21.5 0L0 0Z" fill="#c62368"></path></svg>