<svg id="visual" viewBox="0 0 900 600" width="900" height="600" xmlns="http://www.w3.org/2000/svg" xmlns:xlink="http://www.w3.org/1999/xlink" version="1.1"><path d="M0 251L16.7 228.2C33.3 205.3 66.7 159.7 100 155.5C133.3 151.3 166.7 188.7 200 194.8C233.3 201 266.7 176 300 178.2C333.3 180.3 366.7 209.7 400 212.5C433.3 215.3 466.7 191.7 500 173.2C533.3 154.7 566.7 141.3 600 130C633.3 118.7 666.7 109.3 700 106.5C733.3 103.7 766.7 107.3 800 122.8C833.3 138.3 866.7 165.7 883.3 179.3L900 193L900 0L883.3 0C866.7 0 833.3 0 800 0C766.7 0 733.3 0 700 0C666.7 0 633.3 0 600 0C566.7 0 533.3 0 500 0C466.7 0 433.3 0 400 0C366.7 0 333.3 0 300 0C266.7 0 233.3 0 200 0C166.7 0 133.3 0 100 0C66.7 0 33.3 0 16.7 0L0 0Z" fill="#ff1100"></path><path d="M0 94L16.7 109.2C33.3 124.3 66.7 154.7 100 155.8C133.3 157 166.7 129 200 109.8C233.3 90.7 266.7 80.3 300 82.3C333.3 84.3 366.7 98.7 400 113.7C433.3 128.7 466.7 144.3 500 150C533.3 155.7 566.7 151.3 600 155.5C633.3 159.7 666.7 172.3 700 159.3C733.3 146.3 766.7 107.7 800 94.8C833.3 82 866.7 95 883.3 101.5L900 108L900 0L883.3 0C866.7 0 833.3 0 800 0C766.7 0 733.3 0 700 0C666.7 0 633.3 0 600 0C566.7 0 533.3 0 500 0C466.7 0 433.3 0 400 0C366.7 0 333.3 0 300 0C266.7 0 233.3 0 200 0C166.7 0 133.3 0 100 0C66.7 0 33.3 0 16.7 0L0 0Z" fill="#c30401"></path><path d="M0 112L16.7 101.5C33.3 91 66.7 70 100 77.2C133.3 84.3 166.7 119.7 200 131C233.3 142.3 266.7 129.7 300 111C333.3 92.3 366.7 67.7 400 70.3C433.3 73 466.7 103 500 121.2C533.3 139.3 566.7 145.7 600 150.5C633.3 155.3 666.7 158.7 700 141.3C733.3 124 766.7 86 800 75C833.3 64 866.7 80 883.3 88L900 96L900 0L883.3 0C866.7 0 833.3 0 800 0C766.7 0 733.3 0 700 0C666.7 0 633.3 0 600 0C566.7 0 533.3 0 500 0C466.7 0 433.3 0 400 0C366.7 0 333.3 0 300 0C266.7 0 233.3 0 200 0C166.7 0 133.3 0 100 0C66.7 0 33.3 0 16.7 0L0 0Z" fill="#830000"></path><path d="M0 13L16.7 20.8C33.3 28.7 66.7 44.3 100 57.7C133.3 71 166.7 82 200 85.5C233.3 89 266.7 85 300 86.5C333.3 88 366.7 95 400 93.7C433.3 92.3 466.7 82.7 500 75.5C533.3 68.3 566.7 63.7 600 68.8C633.3 74 666.7 89 700 96.2C733.3 103.3 766.7 102.7 800 90C833.3 77.3 866.7 52.7 883.3 40.3L900 28L900 0L883.3 0C866.7 0 833.3 0 800 0C766.7 0 733.3 0 700 0C666.7 0 633.3 0 600 0C566.7 0 533.3 0 500 0C466.7 0 433.3 0 400 0C366.7 0 333.3 0 300 0C266.7 0 233.3 0 200 0C166.7 0 133.3 0 100 0C66.7 0 33.3 0 16.7 0L0 0Z" fill="#000000"></path></svg>